<?xml version="1.0" encoding="UTF-8" standalone="no"?>
<svg viewBox="0 0 586.06317 696.74371" xmlns="http://www.w3.org/2000/svg">
<g transform="translate(-75.54151,-122.61472)">
<path d="m596.7993,805.36496c-4.39143-4.08857-7.66439-6.20985-11.50634-7.45754-18.03938-5.85836-29.23438-15.72982-38.35757-33.82272-3.41736-6.77723-4.91388-8.67333-8.9001-11.27651-7.30108-4.76792-8.60827-7.57988-2.77376-5.9668 2.01346.55667 5.63769,1.29089 8.05384,1.63161 3.75382.52937 4.63505,1.1041 6.05653,3.95008 4.45997,8.92938 11.19666,19.14814 15.90754,24.12982l5.2243,5.52462 4.71-.6257c5.81083-.77193 14.66715-5.17308 16.99505-8.44569 1.14332-1.60729 2.07612-5.72417 2.7321-12.058 1.05122-10.15004 2.77404-14.30002 5.93653-14.30002 1.02978,0 2.13827-.4303 2.4633-.95623 1.06084-1.71647 4.48278,1.27083 6.92905,6.04895 2.91341,5.69055 3.1227,13.36151.54591,20.00888-.99633,2.57026-1.86005,6.21075-1.91935,8.08998s-.76116,5.61328-1.55966,8.2979c-1.3073,4.39522-1.30284,4.68675.0448,2.92866 2.10414-2.74501 5.88051-10.2622 8.20416-16.33103 1.26394-3.30112 4.06155-7.34248 7.80382-11.27324 5.79428-6.08612 5.83357-6.10748 5.83357-3.17273 0,1.62505-.4393,2.95465-.97623,2.95465s-.97622,1.32347-.97622,2.94103-.81918,5.90074-1.8204,9.51817-2.59869,10.97015-3.54993,16.33938-2.34988,10.98973-3.10811,12.49001c-1.9226,3.80424-6.82959,6.53833-11.74246,6.54268-3.66812.003-4.77737-.61468-10.25034-5.71021zm-454.78314-27.4557c-7.56313-3.99829-13.59553-14.07769-13.59553-22.7165 0-3.82806-1.49231-6.36733-6.49604-11.05343-4.82938-4.52284-5.43138-7.73222-2.38688-12.72495 3.6234-5.94211 14.64446-10.20531 15.50865-5.99912 .2032.98902-.23204,1.70839-1.03362,1.70839-2.26898,0-4.61588,3.35821-4.61588,6.60489 0,2.21195.94057,3.92176 3.47027,6.30838 3.13736,2.95992 3.3715,3.53383 2.44056,5.98238-2.582,6.79116-.62196,13.7712 5.20866,18.54895 6.2962,5.15927 8.73869,5.08906 14.71867-.42309 5.48858-5.0592 7.862-11.55215 6.97656-19.08581-.33904-2.88464-.25547-5.2448.18568-5.2448s2.06474,1.3179 3.60795,2.92867 3.58599,2.92867 4.53951,2.92867c5.61568,0 20.04117-8.31602 31.58074-18.20572 22.32035-19.12907 46.61435-34.47876 66.13911-41.78871 7.02268-2.62924 8.07619-2.26841 4.14894,1.42105-2.40533,2.25971-3.25595,4.88112-1.58386,4.88112 .47117,0 1.34456-.58785 1.94085-1.30633s2.9564-1.86622 5.2447-2.55051 6.22112-2.28712 8.7396-3.56184 8.00974-3.67734 12.20279-5.33919 16.62938-7.33071 27.63629-12.59748 30.43129-14.21976 43.16528-19.89551l23.15272-10.31956 8.08642,8.0167c9.7183,9.63451 68.42373,51.74736 107.66116,77.23169 10.81208,7.02233 13.06646,9.00449 14.75945,12.97721 1.87152,4.39162.89798,6.15672-3.39328,6.15231-4.15346-.004-7.36009-1.83309-14.91065-8.50392-3.02331-2.67107-7.19666-5.87034-9.27412-7.10952-20.87568-12.45203-29.02098-18.20442-38.1544-26.94545-3.10636-2.97291-9.36682-7.65854-13.91214-10.41253s-9.8169-6.39995-11.71467-8.10213-7.62382-5.50629-12.72459-8.45359c-16.14746-9.33026-19.77704-11.57108-29.87979-18.44711-5.42697-3.69365-10.09944-6.71572-10.38326-6.71572-1.21935,0-129.87525,64.21781-147.17175,73.45989-22.67168,12.1142-27.83839,15.16554-39.96801,23.60414-14.23875,9.90594-24.33926,18.9428-26.97333,24.13289-2.69409,5.30835-8.27325,10.2385-13.10894,11.58402-4.62822,1.2878-5.7798,1.17434-9.83382-.96883zm439.3719-29.97744c-3.36779-.55589-11.94238-3.44839-13.41231-4.52442-.66524-.48697-.98834-1.24331-.71799-1.68073s-.33551-1.05782-1.34634-1.37864-2.62284-1.45071-3.58225-2.51085-2.5549-1.92752-3.54554-1.92752-1.80114-.47366-1.80114-1.05257-5.79962-7.16193-12.88805-14.6289-13.25763-14.23668-13.70931-15.0438c-1.54779-2.76575 4.22842-5.04409 14.64433-5.77626 5.69798-.40053 10.35866-1.24465 11.69056-2.11734 2.49725-1.63627 2.91851-3.35872.82144-3.35872-1.82048,0-5.44008-4.63435-5.44008-6.96521 0-2.0131 3.06285-2.44433 7.01406-.98752 4.39879,1.62183 8.16222,2.27887 7.14117,1.24675-3.69141-3.73147-67.96928-27.46097-74.38751-27.46169-.64395-7e-005-2.40115-1.25944-3.90489-2.79858s-8.66466-5.87815-15.91311-9.64223c-17.18952-8.92641-22.27093-11.93638-31.89195-18.8912-4.38598-3.17053-8.49151-5.76459-9.12342-5.76459s-2.47.94069-4.08465,2.09042c-3.0635,2.18141-14.95893,5.71936-19.22981,5.71936-2.12716,0-2.27244-.18266-1.04225-1.31038 1.12125-1.02785 54.95422-30.65406 86.84898-47.79613 2.95308-1.58715 9.10328-4.97316 13.66712-7.52446 29.67985-16.59181 64.39733-35.0726 72.59118-38.64172 5.29364-2.30583 10.44682-4.93635 11.45152-5.84559 2.90638-2.63024 3.31294-7.37166 1.01785-11.87042-1.71893-3.36938-1.80979-4.15659-.66105-5.72759 1.2665-1.73205 1.4236-1.73822 3.20521-.12588 1.04428.94506 3.41996,1.69542 5.36778,1.69542 3.40779,0 3.5443-.14794 5.51149-5.9731 2.5583-7.57553 6.40493-14.16819 9.11211-15.61702 1.83006-.97943 2.45908-.72657 4.85048,1.94989 1.51125,1.69138 2.74774,3.92627 2.74774,4.9664 0,1.33029 1.01186,2.17056 3.41181,2.83321 1.87649.51813 4.76574,2.29598 6.42054,3.95078 3.54384,3.54384 7.73966,4.10052 7.73966,1.02687 0-1.09003-1.10385-4.6045-2.453-7.80994-2.85132-6.77443-5.57848-16.66993-4.80683-17.44158 .29284-.29284.83802-.0574 1.21151.52321s4.12234,6.10093 8.33074,12.2674c6.71156,9.83428 7.65993,11.75972 7.71907,15.67166 .0847,5.60612-1.6868,9.97522-5.90433,14.56156-2.887,3.13946-4.17223,3.72973-10.28766,4.72488-15.5604,2.53212-34.32383,8.0213-53.4073,15.62412-22.20104,8.84486-66.64645,30.33835-87.32375,42.22915l-27.8343,16.02806c-9.40273,5.41901-19.61646,11.08895-22.69718,12.59989s-5.60134,3.06502-5.60134,3.45353c0,1.45445 5.97848,4.6714 27.82236,14.97092 12.34922,5.82273 31.77217,15.09243 43.16211,20.59933s24.78861,11.43361 29.7748,13.17046 15.43567,6.21144 23.22104,9.94352c26.07178,12.49807 28.25581,13.28043 39.04892,13.98799 13.03736.85469 25.51353,3.07401 35.86335,6.37955 11.42217,3.64804 16.43973,6.07568 17.79627,8.61041 3.07541,5.74646-.73176,15.02762-10.48637,25.56376-6.45171,6.96861-11.23757,9.64126-17.26445,9.64126-4.04797,0-4.4319-.20644-4.4319-2.38294 0-1.31062-.40367-2.63244-.89706-2.93737-.51323-.31719-.31722-1.71675.45811-3.27091 2.07641-4.16229.61819-8.11846-3.79718-10.30175-4.68206-2.31518-9.31518-1.53066-13.70076,2.31993l-3.25181,2.85512-9.66227-1.90509c-16.16941-3.1881-26.09667-6.65812-27.18859-9.50362-.32016-.83431.33144-3.26962 1.448-5.41178 2.52968-4.8533 1.94935-6.55806-2.23244-6.55806-4.08251,0-11.85142,3.84738-12.26225,6.07261-.39802,2.15587 7.77233,10.92737 13.07074,14.03244 5.19757,3.04597 16.2779,6.81045 22.6087,7.68116 4.80798.66126 4.96179.78236 5.41465,4.26326 .38519,2.96079.05,3.90297-1.931,5.42801-1.31841,1.01494-2.79122,2.88196-3.27293,4.14894s-1.21618,2.24378-1.63216,2.17067l-3.19689-.5358zm-431.00241-21.21223c-8.1445-1.76915-10.21915-4.47705-3.43008-4.47705 4.56531,0 36.38123-8.73115 46.64842-12.8016 8.81761-3.49575 17.64342-7.92897 29.02215-14.57788 29.28079-17.10959 38.16275-22.08159 47.34682-26.50412 5.63768-2.71481 14.42369-7.67513 19.52445-11.02296 13.26051-8.70338 28.20012-17.31003 61.01071-35.14803 29.45798-16.01529 35.63536-19.50447 35.63536-20.12793 0-1.4144-24.15239-13.9867-76.49883-39.82075-82.39009-40.6612-86.08582-42.58865-85.76874-44.73129 .47631-3.21857-3.91247-8.26075-12.47633-14.33379-8.74551-6.20184-16.51656-13.38138-18.50461-17.09607-1.10484-2.06443-1.02884-2.17157 1.09286-1.54058 4.25483,1.26538 9.12637,5.29134 21.33635,17.63291 8.13359,8.22124 13.64325,12.96732 16.57608,14.27882 2.41615,1.08044 10.98251,4.7273 19.03635,8.10414 26.08138,10.93546 47.98405,21.35949 91.76495,43.67325 51.51044,26.25325 55.38208,28.45746 54.9699,31.29572-.23006,1.58426-1.54279,2.43381-5.5455,3.58886-3.68253,1.06266-6.15343,2.55504-8.29789,5.0118-5.09282,5.83445-46.80126,29.61213-116.29567,66.29931-18.73481,9.89039-34.6578,18.81272-41.3955,23.19566-3.43832,2.23665-8.45517,4.79858-11.14857,5.69318s-11.74134,5.03969-20.10654,9.21129c-13.6051,6.78466-30.46502,13.49071-37.17447,14.78616-1.34231.25917-4.63706-.006-7.32167-.58905zm185.35331-107.41129c-1.68175-.73186-7.17301-3.93764-12.20279-7.12396-13.52964-8.57089-19.69741-11.89145-53.96546-29.05357-27.38439-13.71464-31.29903-15.95739-32.09849-18.3896-1.34536-4.09304.009-4.66807 7.13448-3.03009 17.40138,3.99989 32.82637,10.46618 63.43895,26.59411 11.54383,6.08177 24.25205,12.5749 28.24048,14.42919s8.68089,4.46155 10.42769,5.7939 4.30426,2.85142 5.68327,3.37571c3.57287,1.3584 3.13694,2.5977-2.07687,5.90419-5.06152,3.20993-9.58326,3.67512-14.58126,1.50012zm21.2641-17.56637c-.0804-1.03924-1.10144-2.90627-2.26888-4.14895-1.67307-1.7809-1.80176-2.25942-.60765-2.25942 2.33355,0 3.89141,2.51888 3.43519,5.55425-.22867,1.52129-.47755,1.90182-.55866.85412zm-14.3273-10.66488c-2.69881-1.25675-9.72761-5.9626-15.61957-10.45744s-13.78775-10.31768-17.54621-12.93963-5.73531-4.45006-4.393-4.06248c6.31713,1.82402 20.08965,10.03461 29.83851,17.78844 5.91823,4.70712 11.83938,9.30413 13.15814,10.21558 3.58231,2.47592.35419,2.1527-5.43787-.54447zm72.93724-4.67111c.2276-.7275 8.95576-5.73118 19.39591-11.11929 32.77856-16.91689 59.69357-32.75383 95.61556-56.26074 17.35439-11.35649 17.66849-11.53264 14.64335-8.21231-5.23837,5.74952-40.07609,29.34232-65.40694,44.29486-15.636,9.22979-56.84561,30.34507-62.34971,31.94722-1.70342.49584-2.20307.32481-1.89817-.64974zm-129.07761-27.78849c-18.18535-6.86593-35.50703-14.37898-39.64983-17.19758-3.1387-2.13544-6.93339-8.15589-5.83376-9.25551 .2928-.29281 5.71177,2.08647 12.04215,5.28728s12.93751,6.30866 14.6825,6.90632c1.74987.59933 3.17273,1.76614 3.17273,2.60178 0,.83332.56738,1.51512 1.26084,1.51512 2.18021,0 30.36488,14.2892 29.38237,14.89642-.51432.31786-7.28997-1.82136-15.057-4.75383zm-62.44491,1.54696c-.80539-.4876-4.09794-1.39385-7.31678-2.0139-4.07086-.78418-12.98629-4.74715-29.28669-13.01817-29.13426-14.78305-33.82205-16.34694-48.55749-16.1992-6.04835.0606-13.1935.23269-15.87811.38233-16.80953.93698-33.64007-8.4261-38.50127-21.41881-3.06562-8.19362-2.70299-13.8504 1.25632-19.59697 4.96621-7.20802 12.35126-10.40171 12.35126-5.34135 0,.91906 1.28139,2.11765 2.92867,2.73943 3.76855,1.42248 4.11814,4.93588.49112,4.93588-3.12843,0-4.68391,1.33854-7.86666,6.7695-3.49452,5.96294-2.54508,6.71553 8.09861,6.41946 4.62895-.12876 10.20379.24706 12.38855.83518 4.79317,1.29026 17.80771,7.36582 18.63061,8.69728 .32359.5236 2.02025.95199 3.77034.95199 5.58364,0 12.8722,2.79716 17.30495,6.6412 2.36034,2.04687 6.70767,4.74193 9.66075,5.98901s10.10036,4.69093 15.88286,7.65297c10.37511,5.31457 14.3922,6.34939 8.57892,2.20997-6.55151-4.66509-2.03483-5.30414 7.365-1.04206 10.05606,4.55964 23.17804,14.89791 28.84145,22.72299 2.09623,2.89636 2.08478,3.03166-.14241,1.68327zm165.46978-5.56949c-7.58022-.62009-14.60392-2.37457-13.0307-3.25498 2.36977-1.32619 10.22143-1.68934 15.55719-.71953 4.21332.76579 5.55448.58972 9.29296-1.22004 3.30282-1.59888 6.03366-2.08967 11.19054-2.01117 6.39838.0974 7.22853-.14998 13.38268-3.98802 8.32173-5.18987 16.4227-11.37644 20.39281-15.57363 3.26423-3.45095 8.13335-11.92439 8.13335-14.154 0-.72541.65895-1.31894 1.46433-1.31894 3.01358,0 1.56024,5.41458-3.31773,12.36056-14.53716,20.70017-38.20443,31.91347-63.06543,29.87975zm183.08958-41.84692c-1.69571-1.93132-2.9493-4.16538-2.78574-4.96455s3.65746-2.74867 7.76421-4.3322c10.09909-3.89411 19.61869-12.33105 15.47274-13.71303-.63605-.21201-.65987-1.4349-.0681-3.49814 1.09376-3.81372.91827-3.86523-2.47015-.72496-2.21559,2.05335-11.86287,5.92848-12.69287,5.0985-.6037-.60372 13.62986-14.37926 14.85737-14.37926 .99516,0 1.3517-1.48464 1.3517-5.62851 0-9.69135 6.41214-17.59573 13.37319-16.48543 4.36251.69583 9.79123,3.41965 10.50076,5.26868 1.11607,2.90843-1.03058,3.61797-7.51415,2.48365-5.6318-.98531-6.24218-.91621-7.80708.88388-4.37153,5.02853-4.67981,15.98773-.46658,16.58679 3.17037.45079 2.70988,5.71894-1.25102,14.31225-3.08878,6.70118-3.35656,6.98427-6.6067,6.98427-2.37177,0-4.38757.87811-6.72301,2.92867-1.83457,1.61076-3.75958,2.92866-4.27783,2.92866s-.94225.9124-.94225,2.02754c0,1.72912-4.79008,7.73469-6.16922,7.73469-.25415,0-1.8495-1.58017-3.54523-3.5115zm-174.47845-12.1129c-1.75132-.70577-2.00074-1.33066-1.41111-3.53534 1.00417-3.75477 2.33543-3.83727 6.11365-.3789 2.72755,2.49664 3.0347,3.1615 1.81779,3.93483-1.77272,1.12654-3.68882,1.12049-6.52033-.0206zm-220.69556-4.1153c-2.70034-1.30233-2.80021-2.39024-.29252-3.18615 2.74782-.87213 5.90581-6.513 5.90581-10.54911 0-5.04346-5.04444-11.19087-12.1757-14.83793-5.0683-2.59203-6.73369-2.93881-14.1133-2.93881-7.3404,0-9.06818.35532-14.0827,2.89611-5.18421,2.62676-5.82424,2.7478-6.88187,1.3014-1.04309-1.42651-2.44347-.93404-13.2784,4.66963-6.66178,3.44537-12.64905,6.26432-13.30503,6.26432s-1.91002-.71732-2.78675-1.59405c-1.47458-1.47457-1.22044-1.72052 3.39102-3.28165 6.87608-2.32778 11.21896-6.14802 16.08945-14.15316 3.97144-6.52747 4.40466-6.90329 9.90346-8.5913 11.07799-3.4007 26.74332-2.13615 36.95577,2.98318 11.02968,5.52899 16.54684,12.81006 17.32585,22.86517 .40156,5.18302.27764,5.58811-1.87477,6.12833-1.26762.31815-2.79799,1.77441-3.40082,3.23614-3.05319,7.40329-4.25064,9.9253-4.69488,9.88809-.26846-.0224-1.47654-.51758-2.68462-1.10021zm259.91936-19.77572c-3.45956-1.70182-6.54594-2.40999-10.59753-2.43164-4.64622-.0248-6.25942-.48743-8.61686-2.47108-3.53848-2.97744-6.83275-3.09361-11.19931-.39492-2.9871,1.84613-4.56934,2.02179-16.22291,1.80104-13.95857-.26441-28.28268,1.14802-34.73703,3.42526-3.82907,1.35097-4.04587,1.32762-4.04587-.43575 0-5.62717 2.46138-7.40265 15.61957-11.26695 18.41235-5.40735 17.91891-5.32082 22.01828-3.86053 4.94835,1.76272 11.59194,1.74876 16.54252-.0348 5.80048-2.08969 7.44526-1.84126 19.57665,2.95683 6.10894,2.41615 11.96901,4.393 13.02236,4.393 2.58555,0 5.9618,4.49734 5.9618,7.94144 0,3.42033-1.02913,3.47347-7.32167.37806zm-148.11686-6.123c-.82385-.93961-2.18557-3.02629-3.02604-4.63706s-4.40699-6.22342-7.92563-10.25034c-8.86157-10.14168-11.72453-16.59579-7.36169-16.59579 1.28825,0 2.53115,1.18044 3.59759,3.41678 .89614,1.87923 1.91071,3.41678 2.2546,3.41678s1.64718-1.0878 2.89622-2.41734c1.82383-1.94138 2.26054-3.46663 2.21795-7.74656-.0867-8.7092-3.81715-14.33176-16.67751-25.13609-1.75197-1.47188-3.09065-3.52965-3.09065-4.75087 0-2.26019-.10235-2.2558 7.46965-.3203 4.66264,1.19183 3.04171-8.42718-1.6722-9.92332-1.28405-.40755-1.82828-1.18096-1.47636-2.09804 .6411-1.67071-4.39295-7.15707-6.56702-7.15707-3.60427,0-4.67809,4.3655-3.24016,13.17264 .7877,4.82451.77587,4.85663-1.1477,3.11581-3.12933-2.83199-4.25926-9.03284-2.5091-13.76929 4.5775-12.38802 5.69229-16.51838 4.56073-16.89782-.64097-.21494-2.77997-1.6739-4.75336-3.24215s-4.03583-2.57455-4.58324-2.23624c-.62525.38643-.78706,3.82909-.43521,9.25985 .51358,7.92718.41193,8.64475-1.22454,8.64475-2.33157,0-2.96972-1.8726-2.96972-8.71438 0-4.41386-.68359-6.97325-3.17273-11.87889-4.10845-8.09701-5.93856-8.20687-6.5895-.39552-.42062,5.04738-.64488,5.58487-1.62174,3.88692-2.02513-3.51998-2.38662-8.55385-1.47092-20.48271 .64094-8.34943 1.65313-13.89164 3.5235-19.29286l2.62424-7.5782-2.50376-7.95476c-2.88308-9.15988-3.08068-13.83848-1.04418-24.72378 3.36782-18.00136 5.68685-37.90944 5.85644-50.27548 .16388-11.94959.45276-13.92262 3.09676-21.15034 4.09249-11.18743 8.46628-17.94647 16.84746-26.03523 8.92345-8.61212 13.63818-13.32504 20.57467-20.56683 10.00904-10.44955 24.27122-18.38978 44.31822-24.67344 5.96111-1.86849 15.23138-4.95208 20.60061-6.85244 23.10452-8.1775 28.74249-8.62097 46.87559-3.68707 7.68485,2.091 10.69344,3.44433 14.22948,6.40079 9.61537,8.03929 23.26673,14.3802 41.81986,19.42484 14.38594,3.91158 17.35677,5.92042 22.08622,14.93443 2.10757,4.01687 4.2188,5.83163 15.17604,13.04493 19.52778,12.85539 36.99966,31.20857 51.26056,53.84618l5.96539,9.46941 .66998,10.16025c.36849,5.58813.6503,18.16442.62624,27.94731-.0457,18.59974-1.29257,28.44424-4.94834,39.06991-1.06327,3.09047-1.93322,7.13481-1.93322,8.98742 0,2.83075-.27269,3.25378-1.70839,2.6503-4.69857-1.97497-5.54894-1.61173-9.51817,4.0657-5.80607,8.30475-8.20453,13.15763-8.25378,16.70013-.0563,4.05339 1.2189,4.03058 3.75139-.0671 2.64067-4.27271 13.23393-14.33222 15.09266-14.33222 2.10901,0 3.83139,6.15372 3.67974,13.14703-.14177,6.53832-2.5061,17.01106-4.19465,18.58021-1.36824,1.27149-.37269-10.67893 1.4842-17.81607 1.4-5.38103 1.16497-5.76582-2.50145-4.0953-3.38678,1.54312-6.79177,7.17399-7.3539,12.16122-.27437,2.43416-.84446,4.63935-1.26688,4.90042-1.18325.73128-3.85411-2.3831-3.85411-4.49412 0-2.6475-1.42835-2.33988-3.44807.7426-2.61838,3.99615-3.07326,14.75089-.92412,21.849 .96603,3.19061 1.52925,6.02827 1.25158,6.30594-.95764.95764-3.442-.62753-4.71688-3.00968-1.48455-2.7739-2.87628-2.95651-6.85434-.89937-4.05094,2.09483-3.85739,5.80351.57299,10.97942l3.45317,4.03426-2.721,1.73219c-1.49655.95271-3.04376,2.18164-3.43823,2.73097-1.22812,1.71023-.81513,9.80671.59887,11.74046 1.29502,1.77105 1.44586,1.7753 3.98375.1124 2.48969-1.6313 5.44013-1.57771 5.38246.0978-.0145.41954-1.81663,1.86105-4.00487,3.20336-7.70294,4.72514-13.09237,13.9707-14.17353,24.31466-.58736,5.61953-1.56344,7.45777-2.51049,4.72797-.62852-1.81166.96906-62.06204 1.67595-63.20581 .3334-.53946 1.36414-.98084 2.29054-.98084s2.39102-1.20808 3.25475-2.68462c1.29586-2.21531 1.53066-5.42982 1.34307-18.38844-.12503-8.63711-.47109-16.10521-.76903-16.59579-1.91872-3.1593-3.67592-12.62959-3.67592-19.81106 0-8.69553-2.95199-20.81542-7.00608-28.76466-1.81524-3.55931-1.82723-3.85005-.23152-5.61329 .92557-1.02274 2.93268-1.85954 4.46023-1.85954 1.92583,0 2.77737-.49196 2.77737-1.60456 0-.88251 1.42329-3.06023 3.16287-4.83937l3.16288-3.23483 2.55877,2.45148c1.99276,1.90918 3.14613,2.30406 5.21387,1.78509 3.95939-.99375 4.25325-3.2283.81122-6.16852-1.63835-1.39948-3.25921-3.76754-3.60192-5.26234-.6589-2.87392-4.34101-5.23844-6.72995-4.32172-.77914.29898-1.70372,2.53681-2.07726,5.02773-.89554,5.97197-4.19409,9.85511-7.63734,8.99092-1.39854-.35101-2.78934-1.41501-3.09068-2.36442s-.97073-9.62458-1.48754-19.27814c-1.08527-20.27149-2.31688-25.90942-8.34447-38.19832-3.20932-6.5431-6.14487-10.75949-10.97676-15.7662-6.45019-6.68355-6.68622-6.82368-10.68932-6.34652-3.55316.42352-4.13302.82946-4.393,3.0753-.2788,2.4084-.79376,2.66916-7.44499,3.76995-3.93001.65043-8.54266,2.04481-10.25034,3.09861s-8.81577,4.16852-15.79576,6.92159-14.74919,5.86152-17.26488,6.90768c-5.32612,2.21488-9.8632,2.45059-11.40527.59251-.59777-.72026-3.04985-1.33925-5.44907-1.37552-5.16031-.078-10.46279-1.68961-15.18004-4.61373-2.45142-1.51958-4.52005-2.01032-7.32167-1.73691-2.84604.27776-5.63667-.40854-10.29142-2.53094-3.5126-1.60161-7.96003-3.20722-9.88319-3.568-4.13614-.77595-15.65659,2.18755-25.11073,6.45941-7.17687,3.24288-8.72258,3.42697-10.32897,1.23008-1.02646-1.40376-1.58739-1.43369-4.8383-.25814-4.60675,1.66583-8.02867,7.17723-9.55628,15.39159-.92294,4.96286-.84843,6.49261.46772,9.60195 2.02495,4.7839 2.93561,21.49565 1.22662,22.51034-1.97054,1.16999-3.43784,4.75479-3.43784,8.39909 0,3.40373-.0218,3.42075-4.14895,3.2369-3.82401-.17035-4.14894.006-4.14894,2.25573 0,2.03152.43316,2.41205 2.58449,2.27048 2.27546-.14975 2.90606.54645 5.27366,5.82217l2.68916,5.99226-1.61281,6.05273c-.88706,3.329-1.61283,7.68869-1.61283,9.68821 0,2.8737-.80386,4.50758-3.83621,7.7973l-3.83622,4.16179-.0809,31.84839c-.0907,35.68341-.35023,34.18376 7.18694,41.52017 4.98698,4.85415 5.41554,5.89814 2.42123,5.89814-2.73146,0-8.68838,6.06715-8.68838,8.84916 0,1.21596 1.7572,5.41255 3.90489,9.32576s3.90489,7.62673 3.90489,8.25229-1.3179,2.6384-2.92867,4.47296c-4.1754,4.75552-3.95018,9.33809.97623,19.86342 2.13612,4.56384 3.88859,8.84702 3.89436,9.51817 .0155,1.80465-3.36352,1.48058-5.08967-.48811zm101.25816-44.58535c-1.61077-.72108-4.44258-2.90039-6.2929-4.84289-3.92373-4.11922-6.68829-4.45744-10.91514-1.33535l-2.97374,2.1965-1.86785-2.30465c-2.44335-3.01476-2.39238-6.62005.11256-7.96064 1.08922-.58294 4.09588-1.31043 6.68148-1.61666 5.77439-.68388 10.69555,1.38509 13.14091,5.52476 1.09455,1.85292 3.04807,3.28794 5.45948,4.01041 3.42051,1.02481 4.21223.8762 8.88692-1.66808 2.82252-1.53621 6.46036-4.44625 8.08408-6.46675 2.33285-2.90292 3.62511-3.67362 6.15966-3.67362 6.9173,0 11.21527,4.8358 9.14278,10.28687-1.07029,2.8151-3.82882,3.12781-7.6548.86775-2.53067-1.4949-2.70742-1.43477-6.56301,2.23297-5.99546,5.70334-14.86995,7.67285-21.40043,4.74938zm-148.4886-26.67892c-1.98464-4.16115-4.39372-10.13528-5.35352-13.27586-1.71316-5.60563-1.71114-5.6794.11043-4.0309 1.02054.92357 2.38092,3.27119 3.02307,5.21692s2.83507,7.16422 4.87316,11.59663c2.67997,5.82834 3.32501,8.05894 2.33046,8.05894-.75634,0-2.99895-3.40458-4.9836-7.56573zm164.59627-.24406c0-2.40007.3736-2.99988 1.70839-2.74282 1.07771.20754 1.70839,1.2201 1.70839,2.74282s-.63068,2.53528-1.70839,2.74283c-1.33479.25706-1.70839-.34275-1.70839-2.74283zm-40.02514-3.83403c0-1.2485 4.84408-4.95197 6.47711-4.95197 2.07844,0 1.56627,2.65434-.83699,4.33765-2.3942,1.67696-5.64012,2.03051-5.64012.61432zm12.88615-21.74301c-.69115-.69114-1.17147-4.01336-1.17147-8.10265 0-6.63938.95958-9.27411 3.37764-9.27411 .63427,0 1.15552,3.5891 1.34689,9.27411 .24857,7.38429.0377,9.27412-1.0347,9.27412-.7408,0-1.87406-.52716-2.51836-1.17147zm-64.95708-19.98574c-.83658-.83658 5.21796-10.25377 9.51355-14.79728 5.18414-5.48336 8.2123-6.99932 13.98122-6.99932 2.72997,0 5.64588-.65384 6.93139-1.55425l2.219-1.55425-4.63025-2.93642-4.63026-2.93642-5.42538,1.55099c-2.98395.85304-6.95553,1.75342-8.82571,2.00083s-3.56238.9359-3.76042,1.53-1.76183,2.91803-3.47513,5.16432c-3.55764,4.66437-11.39275,9.04911-18.48045,10.34216-7.76722,1.41702-7.33345-1.56009 2.406-16.5132 4.09534-6.28765 5.51158-7.70518 8.63225-8.64016 2.8569-.85594 4.47108-2.26845 6.877-6.01775 4.02424-6.27122 6.24375-7.77009 11.50588-7.77009 3.08571,0 4.71108.54303 5.88419,1.96591 .89144,1.08124 3.03251,2.36388 4.7579,2.85031 2.71793.76622 3.61596.50384 6.72093-1.96368 3.7249-2.96017 7.41953-4.21232 15.26533-5.17356 4.45182-.54542 4.68166-.44985 6.21912,2.58572 .87804,1.73365 2.28942,3.94177 3.1364,4.90693 1.40445,1.60043 1.39211,2.15379-.14018,6.28812-1.97162,5.31972-1.46797,6.1252 4.97047,7.9491 4.91453,1.3922 10.96632,6.3691 10.96632,9.01854 0,1.17268-1.27081,2.47311-3.41678,3.49646-2.29621,1.09499-3.41678,2.29888-3.41678,3.67084 0,1.78269-.48048,1.99566-3.79019,1.68004-3.37514-.32188-4.09672.0228-6.5895,3.14689-3.41007,4.2738-4.82996,4.39099-6.99367.57723-3.05114-5.37793-7.05222-5.03979-6.84102.57814 .15333,4.07882-1.33877,5.73872-6.37567,7.09257-4.98897,1.34096-8.06706.0532-10.10923-4.22924-2.25264-4.72383-5.9054-4.74808-9.47894-.063-1.81314,2.37715-3.65267,3.57061-6.21726,4.03365-2.00323.36169-4.37077.78636-5.26119.9437s-1.84845.0566-2.12894-.22391zm122.60304-4.34367c-2.81884-1.0834-5.12517-2.58278-5.12517-3.33195 0-2.1428-5.85957-8.26364-7.91091-8.26364-2.40214,0-2.33204.66759.56377,5.36923 1.3228,2.14769 2.4188,4.45401 2.43556,5.12517 .0589,2.35734-2.82566,1.18511-5.40495-2.19651-2.35099-3.08231-3.07257-3.41678-7.37135-3.41678h-4.76525v3.9049c0,2.14769-.38551,3.90489-.85669,3.90489-2.02108,0-2.87258-2.97585-3.19394-11.1623l-.34237-8.72174 5.85734-1.10056c6.46683-1.21508 10.80813-3.1905 13.46602-6.12743 1.68229-1.85892 1.6642-2.13796-.49042-7.56429-2.20486-5.55285-6.74679-11.44881-9.50755-12.3419-1.92614-.62309-.13209-7.02585 2.08846-7.45349 .87032-.16761 6.44816,2.13553 12.39519,5.11808 10.16005,5.09545 11.27139,5.43153 18.40967,5.56719 5.4669.10389 8.49615-.32067 10.80428-1.51425 1.76407-.91223 3.99358-1.40909 4.95447-1.10412 2.71254.86093 25.83655,26.15052 27.12319,29.66331 1.04902,2.864.94506,3.25871-1.23436,4.68672-5.51561,3.61396-15.17689,2.56534-20.92471-2.27113-3.21032-2.70129-3.62905-4.61284-1.48102-6.76087 .78257-.78257 1.15607-2.1181.82999-2.96785-1.21553-3.16761-12.99129.49867-12.99129,4.04472 0,.78209 1.71,2.29437 3.79999,3.3606 3.55461,1.81342 10.84335,9.18575 10.84335,10.96769 0,.44028 1.04446.8005 2.32103.8005 2.81903,0 4.76589,2.10875 3.93819,4.26569-.49989,1.3027-1.58795,1.48275-6.11823,1.01245-7.40707-.76896-10.56671-1.82113-15.6957-5.22671-4.85734-3.22522-5.92219-3.08368-5.92219.78717 0,3.0011-1.58585,5.04419-3.85608,4.96787-.83223-.0279-3.81948-.93727-6.63832-2.02066z"/>
</g>
</svg>
